<mxfile host="app.diagrams.net" agent="Mozilla/5.0 (Windows NT 10.0; Win64; x64) AppleWebKit/537.36 (KHTML, like Gecko) Chrome/123.0.0.0 Safari/537.36 OPR/109.0.0.0 (Edition std-1)" version="24.7.5">
  <diagram name="Página-1" id="yGf2p1bEU68mInLZERMO">
    <mxGraphModel dx="1009" dy="1711" grid="1" gridSize="10" guides="1" tooltips="1" connect="1" arrows="1" fold="1" page="1" pageScale="1" pageWidth="827" pageHeight="1169" math="0" shadow="0">
      <root>
        <mxCell id="0" />
        <mxCell id="1" parent="0" />
        <mxCell id="EHjnhafDSW_3wNCzah2m-1" value="Paciente" style="shape=umlActor;verticalLabelPosition=bottom;verticalAlign=top;html=1;outlineConnect=0;" vertex="1" parent="1">
          <mxGeometry x="124" y="-1100" width="30" height="60" as="geometry" />
        </mxCell>
        <mxCell id="EHjnhafDSW_3wNCzah2m-2" style="edgeStyle=orthogonalEdgeStyle;rounded=0;orthogonalLoop=1;jettySize=auto;html=1;" edge="1" parent="1" source="EHjnhafDSW_3wNCzah2m-3">
          <mxGeometry relative="1" as="geometry">
            <mxPoint x="314" y="-1062.5" as="targetPoint" />
          </mxGeometry>
        </mxCell>
        <mxCell id="EHjnhafDSW_3wNCzah2m-3" value="Inicio" style="ellipse;whiteSpace=wrap;html=1;aspect=fixed;" vertex="1" parent="1">
          <mxGeometry x="219" y="-1090" width="55" height="55" as="geometry" />
        </mxCell>
        <mxCell id="EHjnhafDSW_3wNCzah2m-4" value="" style="edgeStyle=orthogonalEdgeStyle;rounded=0;orthogonalLoop=1;jettySize=auto;html=1;" edge="1" parent="1" source="EHjnhafDSW_3wNCzah2m-5" target="EHjnhafDSW_3wNCzah2m-7">
          <mxGeometry relative="1" as="geometry" />
        </mxCell>
        <mxCell id="EHjnhafDSW_3wNCzah2m-5" value="Cria Cadastro" style="rounded=1;whiteSpace=wrap;html=1;" vertex="1" parent="1">
          <mxGeometry x="324" y="-1090" width="100" height="60" as="geometry" />
        </mxCell>
        <mxCell id="EHjnhafDSW_3wNCzah2m-6" value="" style="edgeStyle=orthogonalEdgeStyle;rounded=0;orthogonalLoop=1;jettySize=auto;html=1;" edge="1" parent="1" source="EHjnhafDSW_3wNCzah2m-7" target="EHjnhafDSW_3wNCzah2m-8">
          <mxGeometry relative="1" as="geometry" />
        </mxCell>
        <mxCell id="EHjnhafDSW_3wNCzah2m-7" value="Cria Login" style="rounded=1;whiteSpace=wrap;html=1;" vertex="1" parent="1">
          <mxGeometry x="478" y="-1090" width="120" height="60" as="geometry" />
        </mxCell>
        <mxCell id="EHjnhafDSW_3wNCzah2m-8" value="Fim" style="ellipse;whiteSpace=wrap;html=1;aspect=fixed;" vertex="1" parent="1">
          <mxGeometry x="644" y="-1090" width="60" height="60" as="geometry" />
        </mxCell>
        <mxCell id="EHjnhafDSW_3wNCzah2m-9" style="edgeStyle=orthogonalEdgeStyle;rounded=0;orthogonalLoop=1;jettySize=auto;html=1;entryX=0.063;entryY=0.373;entryDx=0;entryDy=0;entryPerimeter=0;" edge="1" parent="1" source="EHjnhafDSW_3wNCzah2m-1" target="EHjnhafDSW_3wNCzah2m-3">
          <mxGeometry relative="1" as="geometry" />
        </mxCell>
        <mxCell id="EHjnhafDSW_3wNCzah2m-18" value="" style="edgeStyle=orthogonalEdgeStyle;rounded=0;orthogonalLoop=1;jettySize=auto;html=1;" edge="1" parent="1" source="EHjnhafDSW_3wNCzah2m-11" target="EHjnhafDSW_3wNCzah2m-12">
          <mxGeometry relative="1" as="geometry" />
        </mxCell>
        <mxCell id="EHjnhafDSW_3wNCzah2m-11" value="Paciente" style="shape=umlActor;verticalLabelPosition=bottom;verticalAlign=top;html=1;outlineConnect=0;" vertex="1" parent="1">
          <mxGeometry x="80" y="-970" width="30" height="60" as="geometry" />
        </mxCell>
        <mxCell id="EHjnhafDSW_3wNCzah2m-17" value="" style="edgeStyle=orthogonalEdgeStyle;rounded=0;orthogonalLoop=1;jettySize=auto;html=1;" edge="1" parent="1" source="EHjnhafDSW_3wNCzah2m-12" target="EHjnhafDSW_3wNCzah2m-15">
          <mxGeometry relative="1" as="geometry" />
        </mxCell>
        <mxCell id="EHjnhafDSW_3wNCzah2m-12" value="Inicio" style="ellipse;whiteSpace=wrap;html=1;aspect=fixed;" vertex="1" parent="1">
          <mxGeometry x="200" y="-971" width="61" height="61" as="geometry" />
        </mxCell>
        <mxCell id="EHjnhafDSW_3wNCzah2m-20" value="" style="edgeStyle=orthogonalEdgeStyle;rounded=0;orthogonalLoop=1;jettySize=auto;html=1;" edge="1" parent="1" source="EHjnhafDSW_3wNCzah2m-15" target="EHjnhafDSW_3wNCzah2m-19">
          <mxGeometry relative="1" as="geometry" />
        </mxCell>
        <mxCell id="EHjnhafDSW_3wNCzah2m-15" value="Efetuar Login" style="rounded=1;whiteSpace=wrap;html=1;" vertex="1" parent="1">
          <mxGeometry x="304" y="-971" width="120" height="60" as="geometry" />
        </mxCell>
        <mxCell id="EHjnhafDSW_3wNCzah2m-22" value="" style="edgeStyle=orthogonalEdgeStyle;rounded=0;orthogonalLoop=1;jettySize=auto;html=1;" edge="1" parent="1" source="EHjnhafDSW_3wNCzah2m-19" target="EHjnhafDSW_3wNCzah2m-21">
          <mxGeometry relative="1" as="geometry" />
        </mxCell>
        <mxCell id="EHjnhafDSW_3wNCzah2m-19" value="Acessar Agenda" style="whiteSpace=wrap;html=1;rounded=1;" vertex="1" parent="1">
          <mxGeometry x="460" y="-970" width="120" height="60" as="geometry" />
        </mxCell>
        <mxCell id="EHjnhafDSW_3wNCzah2m-26" value="" style="edgeStyle=orthogonalEdgeStyle;rounded=0;orthogonalLoop=1;jettySize=auto;html=1;entryX=0.5;entryY=0;entryDx=0;entryDy=0;" edge="1" parent="1" source="EHjnhafDSW_3wNCzah2m-21" target="EHjnhafDSW_3wNCzah2m-39">
          <mxGeometry relative="1" as="geometry">
            <mxPoint x="670" y="-774.7" as="targetPoint" />
          </mxGeometry>
        </mxCell>
        <mxCell id="EHjnhafDSW_3wNCzah2m-34" value="" style="edgeStyle=orthogonalEdgeStyle;rounded=0;orthogonalLoop=1;jettySize=auto;html=1;entryX=1;entryY=0.5;entryDx=0;entryDy=0;" edge="1" parent="1" source="EHjnhafDSW_3wNCzah2m-21" target="EHjnhafDSW_3wNCzah2m-41">
          <mxGeometry relative="1" as="geometry" />
        </mxCell>
        <mxCell id="EHjnhafDSW_3wNCzah2m-21" value="Acessar Agendamento existente?" style="rhombus;whiteSpace=wrap;html=1;rounded=1;" vertex="1" parent="1">
          <mxGeometry x="442.5" y="-850" width="155" height="150.5" as="geometry" />
        </mxCell>
        <mxCell id="EHjnhafDSW_3wNCzah2m-144" value="" style="edgeStyle=orthogonalEdgeStyle;rounded=0;orthogonalLoop=1;jettySize=auto;html=1;" edge="1" parent="1" source="EHjnhafDSW_3wNCzah2m-23" target="EHjnhafDSW_3wNCzah2m-27">
          <mxGeometry relative="1" as="geometry" />
        </mxCell>
        <mxCell id="EHjnhafDSW_3wNCzah2m-23" value="Selecione o médico" style="whiteSpace=wrap;html=1;rounded=1;" vertex="1" parent="1">
          <mxGeometry x="210" y="-675" width="120" height="60" as="geometry" />
        </mxCell>
        <mxCell id="EHjnhafDSW_3wNCzah2m-36" value="" style="edgeStyle=orthogonalEdgeStyle;rounded=0;orthogonalLoop=1;jettySize=auto;html=1;" edge="1" parent="1" source="EHjnhafDSW_3wNCzah2m-27" target="EHjnhafDSW_3wNCzah2m-28">
          <mxGeometry relative="1" as="geometry" />
        </mxCell>
        <mxCell id="EHjnhafDSW_3wNCzah2m-27" value="Selecione a data" style="whiteSpace=wrap;html=1;rounded=1;" vertex="1" parent="1">
          <mxGeometry x="210" y="-584.5" width="120" height="60" as="geometry" />
        </mxCell>
        <mxCell id="EHjnhafDSW_3wNCzah2m-145" style="edgeStyle=orthogonalEdgeStyle;rounded=0;orthogonalLoop=1;jettySize=auto;html=1;" edge="1" parent="1" source="EHjnhafDSW_3wNCzah2m-28" target="EHjnhafDSW_3wNCzah2m-29">
          <mxGeometry relative="1" as="geometry" />
        </mxCell>
        <mxCell id="EHjnhafDSW_3wNCzah2m-28" value="Confirmar" style="whiteSpace=wrap;html=1;rounded=1;" vertex="1" parent="1">
          <mxGeometry x="210" y="-494.5" width="120" height="50" as="geometry" />
        </mxCell>
        <mxCell id="EHjnhafDSW_3wNCzah2m-32" value="" style="edgeStyle=orthogonalEdgeStyle;rounded=0;orthogonalLoop=1;jettySize=auto;html=1;" edge="1" parent="1" source="EHjnhafDSW_3wNCzah2m-29" target="EHjnhafDSW_3wNCzah2m-31">
          <mxGeometry relative="1" as="geometry" />
        </mxCell>
        <mxCell id="EHjnhafDSW_3wNCzah2m-154" style="edgeStyle=orthogonalEdgeStyle;rounded=0;orthogonalLoop=1;jettySize=auto;html=1;entryX=0.25;entryY=1;entryDx=0;entryDy=0;" edge="1" parent="1" source="EHjnhafDSW_3wNCzah2m-29" target="EHjnhafDSW_3wNCzah2m-19">
          <mxGeometry relative="1" as="geometry">
            <Array as="points">
              <mxPoint x="110" y="-305" />
              <mxPoint x="110" y="-860" />
              <mxPoint x="490" y="-860" />
            </Array>
          </mxGeometry>
        </mxCell>
        <mxCell id="EHjnhafDSW_3wNCzah2m-29" value="Novo Agendamento ou Alteração?" style="rhombus;whiteSpace=wrap;html=1;" vertex="1" parent="1">
          <mxGeometry x="185" y="-370" width="170" height="130" as="geometry" />
        </mxCell>
        <mxCell id="EHjnhafDSW_3wNCzah2m-31" value="Fim" style="ellipse;whiteSpace=wrap;html=1;aspect=fixed;" vertex="1" parent="1">
          <mxGeometry x="240" y="-200" width="60" height="60" as="geometry" />
        </mxCell>
        <mxCell id="EHjnhafDSW_3wNCzah2m-33" value="Não" style="text;html=1;align=center;verticalAlign=middle;whiteSpace=wrap;rounded=0;" vertex="1" parent="1">
          <mxGeometry x="370" y="-820" width="60" height="30" as="geometry" />
        </mxCell>
        <mxCell id="EHjnhafDSW_3wNCzah2m-38" value="Sim" style="text;html=1;align=center;verticalAlign=middle;whiteSpace=wrap;rounded=0;" vertex="1" parent="1">
          <mxGeometry x="150" y="-340" width="60" height="30" as="geometry" />
        </mxCell>
        <mxCell id="EHjnhafDSW_3wNCzah2m-146" value="" style="edgeStyle=orthogonalEdgeStyle;rounded=0;orthogonalLoop=1;jettySize=auto;html=1;" edge="1" parent="1" source="EHjnhafDSW_3wNCzah2m-39" target="EHjnhafDSW_3wNCzah2m-48">
          <mxGeometry relative="1" as="geometry" />
        </mxCell>
        <mxCell id="EHjnhafDSW_3wNCzah2m-148" value="" style="edgeStyle=orthogonalEdgeStyle;rounded=0;orthogonalLoop=1;jettySize=auto;html=1;" edge="1" parent="1" source="EHjnhafDSW_3wNCzah2m-39" target="EHjnhafDSW_3wNCzah2m-57">
          <mxGeometry relative="1" as="geometry" />
        </mxCell>
        <mxCell id="EHjnhafDSW_3wNCzah2m-39" value="Alterar Agendamento?" style="rhombus;whiteSpace=wrap;html=1;rounded=1;" vertex="1" parent="1">
          <mxGeometry x="644" y="-720.25" width="155" height="150.5" as="geometry" />
        </mxCell>
        <mxCell id="EHjnhafDSW_3wNCzah2m-143" value="" style="edgeStyle=orthogonalEdgeStyle;rounded=0;orthogonalLoop=1;jettySize=auto;html=1;" edge="1" parent="1" source="EHjnhafDSW_3wNCzah2m-41" target="EHjnhafDSW_3wNCzah2m-23">
          <mxGeometry relative="1" as="geometry" />
        </mxCell>
        <mxCell id="EHjnhafDSW_3wNCzah2m-41" value="Criar novo agendamento" style="rounded=1;whiteSpace=wrap;html=1;" vertex="1" parent="1">
          <mxGeometry x="210" y="-804.75" width="120" height="60" as="geometry" />
        </mxCell>
        <mxCell id="EHjnhafDSW_3wNCzah2m-44" value="Não" style="text;html=1;align=center;verticalAlign=middle;whiteSpace=wrap;rounded=0;" vertex="1" parent="1">
          <mxGeometry x="274" y="-240" width="60" height="30" as="geometry" />
        </mxCell>
        <mxCell id="EHjnhafDSW_3wNCzah2m-46" value="Sim" style="text;html=1;align=center;verticalAlign=middle;whiteSpace=wrap;rounded=0;" vertex="1" parent="1">
          <mxGeometry x="584" y="-810" width="60" height="30" as="geometry" />
        </mxCell>
        <mxCell id="EHjnhafDSW_3wNCzah2m-147" style="edgeStyle=orthogonalEdgeStyle;rounded=0;orthogonalLoop=1;jettySize=auto;html=1;entryX=1;entryY=0.5;entryDx=0;entryDy=0;" edge="1" parent="1" source="EHjnhafDSW_3wNCzah2m-48" target="EHjnhafDSW_3wNCzah2m-23">
          <mxGeometry relative="1" as="geometry" />
        </mxCell>
        <mxCell id="EHjnhafDSW_3wNCzah2m-48" value="Abrir agendamento" style="rounded=1;whiteSpace=wrap;html=1;" vertex="1" parent="1">
          <mxGeometry x="464" y="-675" width="120" height="60" as="geometry" />
        </mxCell>
        <mxCell id="EHjnhafDSW_3wNCzah2m-54" style="edgeStyle=orthogonalEdgeStyle;rounded=0;orthogonalLoop=1;jettySize=auto;html=1;exitX=0.5;exitY=1;exitDx=0;exitDy=0;" edge="1" parent="1" source="EHjnhafDSW_3wNCzah2m-46" target="EHjnhafDSW_3wNCzah2m-46">
          <mxGeometry relative="1" as="geometry" />
        </mxCell>
        <mxCell id="EHjnhafDSW_3wNCzah2m-55" value="Sim" style="text;html=1;align=center;verticalAlign=middle;whiteSpace=wrap;rounded=0;" vertex="1" parent="1">
          <mxGeometry x="597.5" y="-675" width="60" height="30" as="geometry" />
        </mxCell>
        <mxCell id="EHjnhafDSW_3wNCzah2m-56" value="Não" style="text;html=1;align=center;verticalAlign=middle;whiteSpace=wrap;rounded=0;" vertex="1" parent="1">
          <mxGeometry x="750" y="-599" width="60" height="30" as="geometry" />
        </mxCell>
        <mxCell id="EHjnhafDSW_3wNCzah2m-149" style="edgeStyle=orthogonalEdgeStyle;rounded=0;orthogonalLoop=1;jettySize=auto;html=1;entryX=1;entryY=0.5;entryDx=0;entryDy=0;" edge="1" parent="1" source="EHjnhafDSW_3wNCzah2m-57" target="EHjnhafDSW_3wNCzah2m-29">
          <mxGeometry relative="1" as="geometry" />
        </mxCell>
        <mxCell id="EHjnhafDSW_3wNCzah2m-151" value="" style="edgeStyle=orthogonalEdgeStyle;rounded=0;orthogonalLoop=1;jettySize=auto;html=1;" edge="1" parent="1" source="EHjnhafDSW_3wNCzah2m-57" target="EHjnhafDSW_3wNCzah2m-142">
          <mxGeometry relative="1" as="geometry" />
        </mxCell>
        <mxCell id="EHjnhafDSW_3wNCzah2m-57" value="Cancelar Agendamento?" style="rhombus;whiteSpace=wrap;html=1;rounded=1;" vertex="1" parent="1">
          <mxGeometry x="644" y="-524.5" width="155" height="150.5" as="geometry" />
        </mxCell>
        <mxCell id="EHjnhafDSW_3wNCzah2m-139" value="Não" style="text;html=1;align=center;verticalAlign=middle;whiteSpace=wrap;rounded=0;" vertex="1" parent="1">
          <mxGeometry x="590" y="-484.5" width="60" height="30" as="geometry" />
        </mxCell>
        <mxCell id="EHjnhafDSW_3wNCzah2m-141" value="Sim" style="text;html=1;align=center;verticalAlign=middle;whiteSpace=wrap;rounded=0;" vertex="1" parent="1">
          <mxGeometry x="730" y="-380" width="60" height="30" as="geometry" />
        </mxCell>
        <mxCell id="EHjnhafDSW_3wNCzah2m-153" style="edgeStyle=orthogonalEdgeStyle;rounded=0;orthogonalLoop=1;jettySize=auto;html=1;" edge="1" parent="1" source="EHjnhafDSW_3wNCzah2m-142">
          <mxGeometry relative="1" as="geometry">
            <mxPoint x="360" y="-290" as="targetPoint" />
          </mxGeometry>
        </mxCell>
        <mxCell id="EHjnhafDSW_3wNCzah2m-142" value="Cancelar Agendamento" style="rounded=1;whiteSpace=wrap;html=1;" vertex="1" parent="1">
          <mxGeometry x="661.5" y="-320" width="120" height="60" as="geometry" />
        </mxCell>
      </root>
    </mxGraphModel>
  </diagram>
</mxfile>
